<?xml version="1.0" encoding="UTF-8" standalone="no"?>
<!-- Generator: Adobe Illustrator 19.2.0, SVG Export Plug-In . SVG Version: 6.00 Build 0)  -->

<svg
   xmlns:dc="http://purl.org/dc/elements/1.1/"
   xmlns:cc="http://creativecommons.org/ns#"
   xmlns:rdf="http://www.w3.org/1999/02/22-rdf-syntax-ns#"
   xmlns:svg="http://www.w3.org/2000/svg"
   xmlns="http://www.w3.org/2000/svg"
   xmlns:sodipodi="http://sodipodi.sourceforge.net/DTD/sodipodi-0.dtd"
   xmlns:inkscape="http://www.inkscape.org/namespaces/inkscape"
   version="1.1"
   id="Layer_1"
   x="0px"
   y="0px"
   viewBox="0 0 50 50"
   style="enable-background:new 0 0 50 50;"
   xml:space="preserve"
   sodipodi:docname="wrapping-i.svg"
   inkscape:version="0.92.3 (2405546, 2018-03-11)"><metadata
     id="metadata28"><rdf:RDF><cc:Work
         rdf:about=""><dc:format>image/svg+xml</dc:format><dc:type
           rdf:resource="http://purl.org/dc/dcmitype/StillImage" /><dc:title></dc:title></cc:Work></rdf:RDF></metadata><defs
     id="defs26" /><sodipodi:namedview
     pagecolor="#ff0000"
     bordercolor="#666666"
     borderopacity="1"
     objecttolerance="10"
     gridtolerance="10"
     guidetolerance="10"
     inkscape:pageopacity="0"
     inkscape:pageshadow="2"
     inkscape:window-width="1920"
     inkscape:window-height="1001"
     id="namedview24"
     showgrid="false"
     inkscape:zoom="12.558216"
     inkscape:cx="40.58895"
     inkscape:cy="24.249855"
     inkscape:window-x="-9"
     inkscape:window-y="-9"
     inkscape:window-maximized="1"
     inkscape:current-layer="Layer_1" /><style
     type="text/css"
     id="style10">
	.st0{fill:#FFFFFF;}
</style><g
     id="Layer_2" /><path
     style="fill:#ffffff;stroke-width:0.02448019"
     d="m 43.23131,47.725097 c -0.08557,-0.02447 -0.217368,-0.08701 -0.292833,-0.139022 -0.11184,-0.07708 -1.673954,-1.939351 -8.453411,-10.077911 -4.573903,-5.490852 -8.324428,-9.983448 -8.334509,-9.983553 -0.01052,0 -0.07184,0.130041 -0.137194,0.289213 -0.06535,0.159169 -0.162039,0.394048 -0.214712,0.521955 -0.05267,0.127912 -0.256172,0.629143 -0.452183,1.113851 -0.502247,1.241948 -0.499652,1.237166 -0.792105,1.458562 -0.161148,0.121998 -0.428941,0.228052 -0.653524,0.258834 -0.121945,0.01671 -0.389787,-0.02258 -0.60302,-0.08845 -0.224567,-0.06937 -0.473541,-0.283072 -0.622901,-0.534693 -0.06158,-0.10368 -0.142778,-0.238065 -0.180404,-0.298654 -0.143835,-0.231444 -0.393048,-0.657539 -0.393048,-0.672205 0,-0.0085 -0.14595,-0.258594 -0.324363,-0.555912 -0.178398,-0.297317 -0.368432,-0.615266 -0.422285,-0.70656 -0.05388,-0.0913 -0.129646,-0.219353 -0.168436,-0.28458 -0.03879,-0.06522 -0.164663,-0.278333 -0.279717,-0.473563 -0.115007,-0.19523 -0.267838,-0.449094 -0.339529,-0.564146 -0.0717,-0.11506 -0.130856,-0.219702 -0.131302,-0.232563 -5.43e-4,-0.01288 -0.04859,-0.100487 -0.106703,-0.194738 -0.12527,-0.203067 -0.04755,-0.182875 -0.932651,-0.242376 -0.323138,-0.02172 -0.758267,-0.05546 -0.966956,-0.07496 -0.547751,-0.05116 -1.347163,-0.113484 -2.056347,-0.160316 -0.830924,-0.05486 -1.241889,-0.115823 -1.427396,-0.211699 -0.13327,-0.06888 -0.324784,-0.220734 -0.401923,-0.318673 -0.254104,-0.322594 -0.334519,-0.728666 -0.230439,-1.163582 0.05479,-0.228838 0.155216,-0.400168 0.382378,-0.652194 0.09448,-0.104863 0.282011,-0.31589 0.416655,-0.468938 0.13463,-0.153044 0.310899,-0.351003 0.391691,-0.439906 0.08075,-0.0889 0.257031,-0.28738 0.391676,-0.441056 0.134629,-0.153675 0.300093,-0.340516 0.367677,-0.415203 0.06762,-0.07468 0.205083,-0.229427 0.305557,-0.343873 0.306492,-0.349064 0.326686,-0.371806 0.444109,-0.500085 0.394512,-0.430987 0.755203,-0.865051 0.755293,-0.908942 4.5e-5,-0.02772 -0.05568,-0.259047 -0.124061,-0.514086 -0.06837,-0.255037 -0.149873,-0.585037 -0.181341,-0.733332 -0.03139,-0.148304 -0.07561,-0.335568 -0.09825,-0.416164 -0.02248,-0.08059 -0.07999,-0.306269 -0.127688,-0.501497 -0.04768,-0.195231 -0.130856,-0.525714 -0.184903,-0.734408 -0.05403,-0.208692 -0.119384,-0.473078 -0.145194,-0.587523 -0.05508,-0.244175 -0.198969,-0.820264 -0.265876,-1.064889 -0.06097,-0.223143 -0.05992,-0.457798 0.003,-0.705847 0.06338,-0.248632 0.145496,-0.402962 0.308213,-0.579258 0.193823,-0.209916 0.395902,-0.301708 0.810926,-0.368342 0.215905,-0.03467 0.472574,0.03062 0.928876,0.23631 0.198729,0.08957 0.471487,0.209395 0.606117,0.266265 0.288456,0.121828 0.416881,0.179221 0.697699,0.31174 0.114403,0.054 0.296198,0.133965 0.403917,0.17766 0.107766,0.04371 0.24541,0.101827 0.306008,0.12916 0.580051,0.261674 0.86212,0.38759 1.101599,0.491753 0.154839,0.06735 0.386184,0.171072 0.514081,0.2305 0.127989,0.05944 0.288304,0.127807 0.356433,0.151942 l 0.123917,0.04388 0.332284,-0.205123 c 0.182761,-0.112825 0.385775,-0.238173 0.451172,-0.278565 0.06535,-0.04038 0.209401,-0.128516 0.32003,-0.195843 0.227496,-0.138416 0.654714,-0.400686 1.035599,-0.635726 0.141421,-0.08724 0.334158,-0.204712 0.428412,-0.261047 0.09418,-0.05632 0.25397,-0.154353 0.354956,-0.21782 0.100973,-0.06348 0.304771,-0.189778 0.452876,-0.280692 0.148062,-0.09092 0.382501,-0.235799 0.520887,-0.321968 0.454477,-0.283012 0.77905,-0.354779 1.187902,-0.262665 0.315396,0.07105 0.618749,0.293204 0.782914,0.57333 0.03563,0.06075 0.09357,0.218599 0.12874,0.350763 0.06067,0.227834 0.06263,0.25383 0.03833,0.501181 -0.01359,0.143487 -0.03712,0.382061 -0.05116,0.530166 -0.04378,0.46175 -0.09962,1.038463 -0.135232,1.395369 -0.01887,0.188499 -0.04603,0.474916 -0.06037,0.636485 -0.0151,0.161569 -0.0323,0.348843 -0.03954,0.416164 -0.02973,0.272019 -0.109278,1.097206 -0.135533,1.405507 l -0.02792,0.328378 0.08287,0.07053 c 0.04559,0.0388 0.137949,0.11259 0.205308,0.164005 0.06732,0.05142 0.228657,0.185868 0.358532,0.298784 0.319305,0.277612 0.964058,0.832796 1.340384,1.154168 0.169645,0.144876 0.378365,0.326524 0.46379,0.40365 0.08544,0.07711 0.211604,0.182519 0.280381,0.234202 0.06882,0.05168 0.202668,0.161969 0.297526,0.245074 0.226892,0.198799 0.200222,0.175929 0.433303,0.371424 0.389004,0.326254 0.52253,0.5129 0.611231,0.854331 0.05855,0.225296 0.05751,0.354338 -0.0045,0.618078 -0.07817,0.328995 -0.196766,0.520384 -0.437256,0.705436 -0.216915,0.166915 -0.330247,0.20674 -0.942535,0.331205 -0.201356,0.04093 -0.405154,0.08479 -0.452877,0.09745 -0.04769,0.01261 -0.230002,0.05149 -0.405034,0.08628 -0.175032,0.03481 -0.511029,0.10619 -0.746645,0.158654 -0.235632,0.05246 -0.56034,0.124272 -0.721592,0.15957 -0.161254,0.03531 -0.296107,0.06708 -0.29967,0.07066 -0.003,0.0036 3.723735,4.483695 8.282892,9.95585 4.559141,5.472155 8.321438,9.998943 8.360634,10.059532 0.229593,0.354817 0.22386,0.953054 -0.01209,1.309107 -0.05706,0.08598 -0.207738,0.232946 -0.425439,0.415026 -0.362366,0.303071 -0.502834,0.392282 -0.700582,0.444936 -0.17719,0.04717 -0.532704,0.04038 -0.72233,-0.01373 z M 23.770029,26.552639 c 0.06732,-0.170451 0.137648,-0.342959 0.156015,-0.383353 0.01842,-0.04038 0.06791,-0.161568 0.110029,-0.26928 0.04212,-0.107715 0.09146,-0.22889 0.109724,-0.269283 0.03199,-0.07113 0.422164,-1.024209 0.541067,-1.32193 0.126478,-0.316854 0.401197,-0.57811 0.714709,-0.679801 0.103535,-0.03359 0.320421,-0.08946 0.481989,-0.124153 0.16157,-0.03472 0.453498,-0.09733 0.648725,-0.139172 1.318953,-0.282637 1.838118,-0.402517 1.837847,-0.42437 0,-0.0097 -0.04981,-0.05853 -0.11033,-0.108464 -0.176256,-0.145239 -0.554059,-0.463927 -0.687074,-0.579566 -0.383118,-0.333041 -0.87581,-0.755181 -1.037848,-0.889225 -0.522713,-0.432419 -0.62314,-0.560762 -0.712746,-0.910878 -0.06656,-0.260336 -0.06052,-0.461265 0.04468,-1.468812 0.04135,-0.397192 0.09825,-0.964519 0.126479,-1.26073 0.02807,-0.29621 0.05479,-0.563276 0.05916,-0.593482 0.0075,-0.05362 0.0045,-0.05309 -0.129344,0.02215 -0.07547,0.04239 -0.153858,0.09094 -0.174051,0.107872 -0.02022,0.01694 -0.130408,0.08547 -0.244808,0.152304 -0.209414,0.122301 -0.691299,0.416185 -1.077119,0.65691 -0.114403,0.07141 -0.285196,0.175708 -0.379452,0.231788 -0.09418,0.05608 -0.253982,0.154007 -0.354953,0.217617 -0.204388,0.128739 -0.400929,0.203889 -0.64397,0.246215 -0.134476,0.02343 -0.195678,0.0215 -0.356916,-0.01117 -0.194397,-0.03939 -0.485598,-0.137572 -0.578088,-0.194902 -0.02687,-0.01668 -0.103996,-0.05077 -0.171365,-0.07575 -0.06732,-0.02497 -0.188496,-0.07558 -0.269287,-0.112458 -0.294237,-0.134341 -0.8235,-0.365576 -0.83675,-0.365576 -0.01209,0 -0.206003,-0.08524 -0.570859,-0.250724 -0.06052,-0.02747 -0.187273,-0.08212 -0.281513,-0.121421 -0.09434,-0.0393 -0.18513,-0.07748 -0.201972,-0.08484 -0.04845,-0.02115 -0.03955,0.02978 0.115309,0.659295 0.357716,1.455123 0.51592,2.127694 0.539329,2.292792 0.02248,0.15863 0.01872,0.204214 -0.03563,0.424247 -0.07259,0.294383 -0.153192,0.436382 -0.404731,0.713641 -0.100972,0.111315 -0.288258,0.321939 -0.416171,0.468082 -0.12799,0.146144 -0.298658,0.338634 -0.379435,0.42776 -0.08075,0.08912 -0.251538,0.281621 -0.379451,0.427762 -0.127833,0.146145 -0.31858,0.360295 -0.423732,0.4759 l -0.191182,0.210188 0.09327,0.01678 c 0.05132,0.0092 0.28604,0.02892 0.521655,0.04372 0.42156,0.02652 0.754117,0.0513 1.334168,0.09946 0.16157,0.01343 0.461872,0.03509 0.667332,0.04819 0.438871,0.02796 0.543404,0.04991 0.788814,0.165644 0.234017,0.110355 0.391359,0.26993 0.577047,0.585229 0.07789,0.132259 0.229006,0.389197 0.335817,0.570962 0.429259,0.730542 0.621119,1.055962 0.81544,1.383132 0.111985,0.188497 0.211346,0.363396 0.220853,0.388667 0.01555,0.04145 0.02069,0.03942 0.05221,-0.02058 0.01917,-0.03658 0.08995,-0.205973 0.157343,-0.376422 z M 20.6522,42.026329 c -0.06535,-0.06988 -0.300817,-0.363558 -0.533701,-0.66571 -0.261408,-0.339188 -0.27054,-0.346969 -0.405758,-0.34572 -0.06625,5.5e-4 -0.192162,0.006 -0.279686,0.01196 -0.08754,0.006 -0.347106,0.01867 -0.576881,0.02822 l -0.417756,0.01737 -0.05342,-0.06799 c -0.07291,-0.09276 -0.07561,-0.303097 -0.0045,-0.367387 0.02687,-0.02437 0.0489,-0.05679 0.0489,-0.07204 0,-0.01526 0.0326,-0.06586 0.07244,-0.112485 0.03985,-0.04661 0.07289,-0.09474 0.0735,-0.106911 5.42e-4,-0.01222 0.02852,-0.05831 0.06218,-0.102472 0.03365,-0.04417 0.143837,-0.203711 0.244899,-0.354549 0.182156,-0.272017 0.183348,-0.27485 0.146854,-0.348057 -0.02022,-0.0406 -0.03681,-0.08422 -0.03681,-0.09694 0,-0.01261 -0.01736,-0.06336 -0.03849,-0.112526 -0.02113,-0.04916 -0.05282,-0.122431 -0.07033,-0.162816 -0.0175,-0.04039 -0.0489,-0.117505 -0.06973,-0.171362 -0.117728,-0.304595 -0.194276,-0.495763 -0.217519,-0.542732 -0.03668,-0.07406 -0.006,-0.210309 0.0649,-0.286614 0.07124,-0.07697 0.182638,-0.08405 0.397214,-0.02533 0.07803,0.02136 0.176466,0.04746 0.218637,0.05798 0.04211,0.01052 0.08874,0.02657 0.103391,0.03564 0.0151,0.0091 0.10686,0.03805 0.204855,0.06439 0.09795,0.02634 0.259281,0.06974 0.358443,0.09647 l 0.180283,0.04857 0.06444,-0.05008 c 0.09976,-0.07751 0.214063,-0.169421 0.392928,-0.316258 0.09026,-0.07404 0.206608,-0.167691 0.258663,-0.208083 0.05208,-0.04039 0.128438,-0.101775 0.169931,-0.13638 0.130854,-0.109382 0.194562,-0.145134 0.258254,-0.145043 0.08377,1.83e-4 0.217294,0.08492 0.243885,0.154862 0.01209,0.03136 0.02913,0.342556 0.03834,0.691557 l 0.01659,0.63454 0.07744,0.06666 c 0.04256,0.03667 0.08633,0.06696 0.09735,0.06732 0.01052,3.68e-4 0.05615,0.0282 0.10021,0.06185 0.04408,0.03365 0.09131,0.0612 0.104745,0.0612 0.01359,0 0.04421,0.02175 0.06823,0.04834 0.02399,0.02658 0.06702,0.05568 0.09553,0.06463 0.02852,0.0089 0.07938,0.03741 0.11305,0.06319 0.103535,0.07929 0.228354,0.16226 0.321282,0.213451 0.290885,0.160221 0.292365,0.451243 0.003,0.553107 -0.06384,0.02244 -0.135081,0.05084 -0.15852,0.06312 -0.02339,0.01222 -0.05478,0.02232 -0.06973,0.02232 -0.0151,0 -0.06188,0.01549 -0.104284,0.03442 -0.04242,0.01892 -0.132214,0.05294 -0.199543,0.07561 -0.06732,0.02265 -0.139308,0.04984 -0.159925,0.0604 -0.02069,0.01052 -0.07291,0.02694 -0.116059,0.03644 -0.04316,0.0095 -0.08483,0.02741 -0.09236,0.03983 -0.0075,0.01236 -0.03365,0.02259 -0.05781,0.02259 -0.09373,0 -0.194322,0.07354 -0.210668,0.153925 -0.0091,0.04325 -0.02581,0.111682 -0.03789,0.152079 -0.01209,0.04038 -0.03939,0.145043 -0.06082,0.232561 -0.02143,0.08751 -0.0723,0.285804 -0.112892,0.440643 -0.0406,0.154837 -0.07984,0.306557 -0.08694,0.337152 -0.02143,0.09131 -0.121946,0.152452 -0.250694,0.152452 -0.09327,0 -0.126177,-0.01236 -0.177508,-0.06732 z M 10.065392,37.734704 C 10.022829,37.707405 9.9712116,37.65963 9.9508306,37.6285 9.915503,37.574657 9.4819411,37.057872 9.3633553,36.928332 9.3325746,36.894681 9.2143879,36.753095 9.1008138,36.613717 l -0.2065166,-0.253414 -0.1835897,0.01818 c -0.100973,0.01 -0.2221676,0.02137 -0.2692872,0.02527 -0.047082,0.0039 -0.347242,0.02998 -0.6669091,0.05793 -0.6437735,0.05629 -0.7512498,0.0487 -0.84475,-0.05973 -0.078328,-0.09085 -0.075767,-0.283045 0.00601,-0.416101 0.032904,-0.05385 0.071995,-0.125468 0.086939,-0.15912 0.015099,-0.03365 0.046189,-0.08324 0.06958,-0.110158 0.023391,-0.02693 0.085271,-0.120566 0.1373458,-0.208082 0.052231,-0.08752 0.1408166,-0.230727 0.196856,-0.318243 C 7.7965544,34.61269 7.8141235,34.579615 7.784541,34.516225 7.768996,34.483025 7.746817,34.431055 7.73519,34.400758 7.723098,34.370468 7.691416,34.296106 7.663651,34.235518 7.635886,34.174938 7.57294,34.027297 7.5235889,33.907447 7.4742289,33.78759 7.4251779,33.671926 7.4143111,33.650405 7.4037961,33.628885 7.3830561,33.583745 7.3687231,33.550062 7.2999081,33.388196 7.2319833,33.23509 7.1898426,33.146766 c -0.025505,-0.05351 -0.053278,-0.155341 -0.061734,-0.22629 -0.013595,-0.112486 -0.00747,-0.141346 0.048759,-0.225463 0.053579,-0.08107 0.081198,-0.09907 0.1725267,-0.112759 0.060067,-0.0091 0.161615,-0.0036 0.2271483,0.01196 0.1106318,0.02641 0.1767237,0.04283 0.5407639,0.134492 0.077435,0.0195 0.206862,0.05184 0.2876389,0.07188 0.080751,0.02005 0.1909414,0.04886 0.2448085,0.06404 0.084824,0.0239 0.1675469,0.04511 0.4468546,0.114455 0.053424,0.01328 0.1936121,-0.07871 0.3391533,-0.222559 0.053123,-0.05254 0.073799,-0.07058 0.3645532,-0.317956 0.09418,-0.0802 0.1891599,-0.163104 0.210923,-0.184235 0.02173,-0.02113 0.103995,-0.0935 0.18261,-0.160823 0.07863,-0.06732 0.168738,-0.14714 0.200131,-0.177371 0.0972,-0.09367 0.199499,-0.134539 0.292787,-0.117045 0.245757,0.04611 0.27368,0.09741 0.302718,0.556177 0.01359,0.204138 0.03939,0.552189 0.05885,0.773451 0.01947,0.221262 0.03442,0.409337 0.03335,0.417944 -0.0011,0.0086 -6.79e-4,0.06522 9.12e-4,0.125809 0.003,0.105927 0.0075,0.112984 0.129646,0.183603 0.06973,0.04038 0.162611,0.09548 0.206395,0.122406 0.04377,0.02693 0.181355,0.109541 0.305706,0.183602 0.124364,0.07405 0.261696,0.156673 0.305209,0.1836 0.189144,0.117044 0.490942,0.295043 0.524659,0.309427 0.02022,0.0086 0.06143,0.0445 0.09176,0.07976 0.07154,0.08314 0.07878,0.323718 0.01209,0.403263 -0.05086,0.06075 -0.259915,0.174528 -0.320754,0.174528 -0.02355,0 -0.05327,0.0092 -0.06611,0.02055 -0.01209,0.0113 -0.06173,0.03498 -0.108976,0.05263 -0.04708,0.01764 -0.124219,0.04807 -0.171366,0.06762 -0.127832,0.05305 -0.174956,0.07147 -0.269286,0.105336 -0.04708,0.01691 -0.143837,0.0566 -0.214924,0.08816 -0.07109,0.03156 -0.138249,0.05739 -0.149268,0.05739 -0.01977,0 -0.147006,0.05526 -0.229157,0.09949 -0.02339,0.01248 -0.06475,0.02291 -0.09176,0.02291 -0.02716,0 -0.04936,0.01104 -0.04936,0.02448 0,0.01343 -0.01555,0.02448 -0.03456,0.02448 -0.02173,0 -0.04075,0.03854 -0.05101,0.104035 -0.0091,0.05722 -0.04391,0.225215 -0.07744,0.373322 -0.0335,0.148105 -0.07682,0.340885 -0.09629,0.428402 -0.01947,0.0875 -0.04542,0.197678 -0.05764,0.244802 -0.01209,0.04713 -0.04572,0.190334 -0.07456,0.318241 -0.06807,0.30286 -0.08196,0.333599 -0.177192,0.39165 -0.103391,0.06299 -0.253697,0.06239 -0.35334,-0.0014 z M 6.5687143,21.370399 C 6.5072896,21.339964 6.2502236,21.127368 5.7453513,20.689448 5.6964558,20.647004 5.6092147,20.573731 5.5515433,20.526603 5.4938911,20.479484 5.3279871,20.338406 5.1828997,20.213107 4.8893433,19.959565 4.9176264,19.967628 4.6103053,20.049954 c -0.1251255,0.03352 -0.3446469,0.09104 -0.5630412,0.147534 -0.067311,0.0174 -0.2050213,0.05375 -0.3060071,0.08079 -0.1009739,0.02702 -0.2524452,0.06642 -0.3366028,0.08752 -0.084223,0.02111 -0.2218495,0.05751 -0.306008,0.08085 -0.084223,0.02335 -0.2227261,0.04261 -0.3079407,0.04284 -0.1436841,3.55e-4 -0.160044,-0.0053 -0.2252465,-0.07821 -0.083923,-0.0938 -0.1311569,-0.25089 -0.1076085,-0.357971 0.00911,-0.04264 0.042408,-0.132592 0.073498,-0.199913 0.03109,-0.06732 0.085134,-0.194005 0.1202907,-0.281522 0.035027,-0.08751 0.073653,-0.181154 0.085572,-0.208083 0.049661,-0.111591 0.1298037,-0.303594 0.188933,-0.452882 0.053278,-0.13469 0.1376483,-0.334973 0.3150345,-0.748744 0.030936,-0.0722 0.027017,-0.08391 -0.088743,-0.264472 -0.066555,-0.103917 -0.1210387,-0.198442 -0.1210387,-0.210065 0,-0.01156 -0.00911,-0.0248 -0.019309,-0.0293 -0.016456,-0.0069 -0.462552,-0.688053 -0.7966945,-1.216331 -0.1754235,-0.277356 -0.1442874,-0.519974 0.081663,-0.634972 0.085872,-0.04369 0.1344782,-0.053 0.220326,-0.04205 0.060523,0.0077 0.2478555,0.02518 0.4161569,0.03881 0.1683014,0.0136 0.4216798,0.03463 0.5630394,0.04666 0.1414225,0.01209 0.4002645,0.03322 0.575297,0.04706 0.1750325,0.0139 0.3530829,0.03221 0.3956756,0.04086 0.062637,0.01261 0.086638,0.0046 0.1260322,-0.04201 0.2419992,-0.287508 0.5923813,-0.711282 0.6451148,-0.780274 0.03592,-0.04691 0.09644,-0.120039 0.1346295,-0.162502 0.03818,-0.04247 0.1835459,-0.215306 0.3229884,-0.384085 0.2696334,-0.32632 0.3159247,-0.358785 0.5115879,-0.358785 0.1552456,0 0.2825234,0.103666 0.3223387,0.262567 0.016156,0.06428 0.044522,0.177463 0.063083,0.251517 0.036676,0.145902 0.067156,0.279326 0.1119859,0.489603 0.015846,0.07406 0.037888,0.162182 0.048895,0.195842 0.010515,0.03365 0.037724,0.138311 0.059019,0.232561 0.021277,0.09426 0.048148,0.209917 0.059766,0.257042 0.012092,0.04712 0.046937,0.199913 0.078783,0.339532 0.051019,0.224128 0.064896,0.256373 0.1189375,0.275411 0.033651,0.01196 0.080287,0.03258 0.103692,0.04603 0.023391,0.01343 0.053734,0.02448 0.067621,0.02448 0.013595,0 0.07184,0.02091 0.128897,0.0465 0.057051,0.02557 0.25249,0.103718 0.4342536,0.173654 0.1817636,0.06993 0.3635272,0.14142 0.4039157,0.158821 0.1208957,0.05211 0.6296005,0.251086 0.7284896,0.284954 0.050563,0.01733 0.1222479,0.06306 0.1591228,0.10163 0.05962,0.06234 0.067156,0.08852 0.067019,0.235685 -5.93e-5,0.141948 -0.00911,0.177872 -0.065962,0.251923 -0.036221,0.04749 -0.1077679,0.106071 -0.1590636,0.130145 -0.051319,0.02407 -0.098713,0.05041 -0.1054935,0.05853 -0.00601,0.0082 -0.050864,0.03543 -0.097951,0.06071 -0.1592759,0.08545 -0.2527168,0.14121 -0.328452,0.196006 -0.041515,0.03002 -0.1168208,0.07573 -0.1672444,0.101591 -0.050563,0.02585 -0.091762,0.05553 -0.091762,0.06593 0,0.01039 -0.010515,0.01891 -0.024903,0.01891 -0.013586,0 -0.1101717,0.05287 -0.2143348,0.117478 -0.1041386,0.06461 -0.2058815,0.124665 -0.2260147,0.13345 -0.020083,0.0088 -0.130252,0.07465 -0.2446708,0.146342 -0.2072711,0.129856 -0.2081468,0.130842 -0.2252019,0.252118 -0.00911,0.06696 -0.029277,0.386131 -0.044212,0.70927 -0.045123,0.979535 -0.070628,1.289468 -0.113956,1.38876 -0.069881,0.160008 -0.3152613,0.23717 -0.4857496,0.152722 z M 35.181966,15.686995 c -0.08377,-0.01632 -0.174112,-0.115887 -0.198774,-0.218949 -0.01209,-0.05198 -0.04181,-0.248747 -0.06521,-0.437245 -0.02339,-0.188497 -0.06672,-0.535505 -0.09614,-0.771126 l -0.05373,-0.428404 -0.267838,-0.134643 c -0.1473,-0.07404 -0.279106,-0.143895 -0.292885,-0.155204 -0.01359,-0.0113 -0.151744,-0.08482 -0.306583,-0.163336 -0.154837,-0.07853 -0.362757,-0.184175 -0.462053,-0.234782 -0.213187,-0.10866 -0.272125,-0.186969 -0.272262,-0.361794 0,-0.105374 0.01052,-0.129251 0.08739,-0.201961 0.04815,-0.04535 0.09901,-0.08245 0.113049,-0.08245 0.01359,0 0.131761,-0.05086 0.26141,-0.11305 0.129645,-0.06217 0.347785,-0.166826 0.484722,-0.232563 0.136892,-0.06573 0.256413,-0.119514 0.2655,-0.119514 0.0091,0 0.04572,-0.02039 0.0815,-0.04532 0.03576,-0.02493 0.117123,-0.06491 0.180918,-0.08888 0.06368,-0.02396 0.127531,-0.05754 0.141722,-0.07466 0.0136,-0.0171 0.04815,-0.172645 0.07547,-0.345649 0.226288,-1.435364 0.221776,-1.417785 0.37859,-1.4746 0.161178,-0.058399 0.288441,-0.017203 0.419915,0.135926 0.03274,0.03817 0.173086,0.190568 0.311834,0.338672 0.138705,0.148108 0.287867,0.30784 0.331426,0.354963 0.04362,0.04712 0.150024,0.160563 0.236445,0.252083 l 0.157253,0.166402 0.188691,-0.02753 c 0.103838,-0.01513 0.293362,-0.04233 0.421273,-0.06039 0.127834,-0.01806 0.31517,-0.04555 0.416157,-0.06106 0.100973,-0.01553 0.249697,-0.03822 0.330488,-0.05044 0.08075,-0.01222 0.213807,-0.02245 0.29561,-0.02273 0.163487,-5.34e-4 0.225383,0.03961 0.278947,0.18096 0.02776,0.07332 0.01051,0.283671 -0.02355,0.283671 -0.01052,0 -0.04316,0.05233 -0.07321,0.11627 -0.08904,0.19021 -0.154823,0.310087 -0.188842,0.344471 -0.01766,0.0178 -0.03199,0.04352 -0.03199,0.0572 0,0.01373 -0.08648,0.180879 -0.192268,0.371575 -0.105795,0.190695 -0.210048,0.383501 -0.231767,0.428457 l -0.03955,0.08174 0.366411,0.734864 c 0.325131,0.65207 0.36641,0.748629 0.36641,0.857046 0,0.104824 -0.01052,0.132154 -0.07517,0.192424 -0.129344,0.120868 -0.174414,0.119528 -0.90402,-0.02688 -0.303338,-0.06087 -0.509113,-0.09983 -0.636482,-0.120486 -0.0741,-0.01209 -0.174791,-0.0323 -0.223873,-0.04507 -0.08527,-0.02216 -0.09403,-0.01838 -0.19583,0.08472 -0.05855,0.05936 -0.160739,0.15984 -0.226892,0.223284 -0.06611,0.06346 -0.137798,0.13552 -0.159125,0.160171 -0.02143,0.02465 -0.125427,0.129303 -0.231359,0.232561 -0.105954,0.103273 -0.247553,0.244897 -0.314821,0.314754 -0.170611,0.177184 -0.264444,0.218153 -0.42701,0.186459 z M 17.028048,8.6977469 C 16.873888,8.6568044 16.834209,8.5819374 16.704939,8.0881012 16.64019,7.8404261 16.543505,7.4725417 16.490258,7.2705796 16.436981,7.0686175 16.374646,6.832035 16.351705,6.7448398 16.310044,6.5864339 16.30989,6.5862723 16.188489,6.5472089 c -0.06686,-0.021512 -0.154506,-0.052839 -0.194893,-0.069632 -0.04045,-0.016794 -0.120291,-0.043062 -0.177478,-0.058371 -0.0572,-0.015308 -0.103995,-0.035677 -0.103995,-0.045295 0,-0.00972 -0.03576,-0.025191 -0.07954,-0.034652 -0.07033,-0.015204 -0.309087,-0.1013674 -0.446766,-0.1612207 -0.02686,-0.011827 -0.10958,-0.042024 -0.183603,-0.067359 -0.379936,-0.1300404 -0.45478,-0.1579329 -0.476137,-0.1774732 -0.01209,-0.011827 -0.03939,-0.021262 -0.05902,-0.021262 -0.01962,0 -0.06702,-0.035033 -0.105191,-0.077846 -0.05916,-0.066347 -0.06958,-0.098595 -0.06958,-0.2183367 0,-0.1266106 0.05629,-0.2907051 0.09991,-0.2911822 0.0151,-1.721e-4 0.246061,-0.1477448 0.267371,-0.1706123 0.006,-0.00724 0.05071,-0.034416 0.09795,-0.060395 0.04708,-0.025992 0.14308,-0.08933 0.213156,-0.1407567 0.07019,-0.05142 0.134479,-0.093496 0.14293,-0.093496 0.0091,0 0.06128,-0.031274 0.117268,-0.069488 0.226877,-0.1546818 0.314506,-0.2131947 0.354109,-0.2364526 0.02294,-0.013429 0.07668,-0.049238 0.119542,-0.079554 0.04286,-0.030315 0.08587,-0.055152 0.09553,-0.055152 0.0091,0 0.05373,-0.027542 0.09795,-0.061196 0.04408,-0.033654 0.09131,-0.061196 0.10489,-0.061196 0.06083,0 0.05886,0.02506 0.100513,-1.2399278 0.01359,-0.4194104 0.03185,-0.7957943 0.04,-0.836407 0.0075,-0.040618 0.04739,-0.1050467 0.08708,-0.1432021 0.06475,-0.062077 0.08964,-0.069356 0.236612,-0.069356 0.171622,0 0.188736,0.00907 0.459246,0.2448022 0.03728,0.032484 0.2006,0.1685177 0.425967,0.354799 0.100972,0.08347 0.211497,0.1754861 0.245592,0.2044836 0.03412,0.028989 0.149721,0.1241666 0.257047,0.2114958 0.107308,0.087334 0.22259,0.1841131 0.256246,0.2150831 0.03365,0.030973 0.07773,0.051288 0.09795,0.045164 0.0495,-0.015099 0.886663,-0.2522318 1.040414,-0.2947826 0.06732,-0.018621 0.286282,-0.079725 0.486579,-0.1357606 0.410874,-0.1149417 0.507015,-0.1152834 0.633526,-0.00223 0.06188,0.055336 0.07652,0.089435 0.08527,0.1993877 0.0091,0.1099352 -0.006,0.1807991 -0.09026,0.4141557 -0.05538,0.1548368 -0.115467,0.3145699 -0.13327,0.3549632 -0.01796,0.040395 -0.05781,0.1395332 -0.08859,0.2203208 -0.03079,0.08079 -0.06958,0.1799306 -0.08618,0.2203224 -0.05478,0.1328327 -0.19933,0.5116385 -0.244625,0.6408313 l -0.04438,0.1267552 0.340797,0.5095781 c 0.187439,0.2802688 0.346307,0.5207608 0.353039,0.5344271 0.006,0.013732 0.08936,0.1379642 0.183604,0.2762136 0.227752,0.3340774 0.231783,0.3423364 0.232204,0.4753479 3.63e-4,0.1390063 -0.03034,0.2115205 -0.11757,0.276554 -0.05811,0.043299 -0.103838,0.048962 -0.396128,0.048962 -0.181763,0 -0.54529,-0.014191 -0.807846,-0.031577 -0.262541,-0.017359 -0.583325,-0.038068 -0.712824,-0.046006 L 18.607459,7.056179 18.432276,7.2857878 c -0.0963,0.1262822 -0.198593,0.2571492 -0.227224,0.2908091 -0.02867,0.033654 -0.0966,0.121788 -0.15117,0.1958424 -0.05448,0.074049 -0.110632,0.1471865 -0.124824,0.1625279 -0.0136,0.015336 -0.0477,0.058717 -0.0747,0.096361 -0.02686,0.037679 -0.07381,0.095586 -0.103996,0.1286878 -0.03034,0.033111 -0.05508,0.066858 -0.05508,0.074991 -1.6e-5,0.00816 -0.02852,0.047837 -0.06323,0.088216 -0.03472,0.040379 -0.08708,0.1043371 -0.116216,0.1421139 -0.108976,0.1412247 -0.152998,0.1838376 -0.229293,0.2223057 -0.08724,0.04401 -0.124823,0.045491 -0.258088,0.010121 z"
     id="path24"
     inkscape:connector-curvature="0" /></svg>